<svg width="20" height="20" viewBox="0 0 20 20" fill="none" xmlns="http://www.w3.org/2000/svg">
<path d="M10 3.5C11.7239 3.5 13.3772 4.18482 14.5962 5.40381C15.8152 6.62279 16.5 8.27609 16.5 10C16.5 11.7239 15.8152 13.3772 14.5962 14.5962C13.3772 15.8152 11.7239 16.5 10 16.5V3.5ZM10 2C7.87827 2 5.84344 2.84285 4.34315 4.34315C2.84285 5.84344 2 7.87827 2 10C2 12.1217 2.84285 14.1566 4.34315 15.6569C5.84344 17.1571 7.87827 18 10 18C12.1217 18 14.1566 17.1571 15.6569 15.6569C17.1571 14.1566 18 12.1217 18 10C18 7.87827 17.1571 5.84344 15.6569 4.34315C14.1566 2.84285 12.1217 2 10 2V2Z" fill="black"/>
</svg>
