<?xml version="1.0" standalone="no"?>
<!DOCTYPE svg PUBLIC "-//W3C//DTD SVG 20010904//EN"
 "http://www.w3.org/TR/2001/REC-SVG-20010904/DTD/svg10.dtd">
<svg version="1.0" xmlns="http://www.w3.org/2000/svg"
 width="800" height="800" viewBox="0 0 354.000000 361.000000"
 preserveAspectRatio="xMidYMid meet">

<g transform="translate(0.000000,361.000000) scale(0.100000,-0.100000)"
fill="#000000" stroke="none">
<path d="M1918 3119 c-10 -5 -18 -20 -18 -32 0 -16 213 -235 763 -785 419
-419 770 -762 779 -762 10 0 22 9 28 20 7 13 11 254 12 740 l1 720 -26 38
c-49 76 -10 72 -809 72 -466 -1 -719 -4 -730 -11z"/>
<path d="M850 2075 l0 -75 110 0 110 0 0 -265 0 -265 105 0 105 0 0 265 0 265
110 0 110 0 0 75 0 75 -325 0 -325 0 0 -75z"/>
<path d="M1546 1823 c-60 -181 -111 -334 -114 -340 -3 -10 20 -13 97 -13 l100
0 26 85 26 85 119 0 119 0 26 -85 26 -85 99 0 c55 0 100 3 100 8 0 4 -50 157
-112 339 l-113 333 -145 0 -145 0 -109 -327z m288 84 c16 -50 31 -100 34 -109
4 -16 -4 -18 -68 -18 -64 0 -72 2 -67 18 23 84 63 202 67 202 3 0 18 -42 34
-93z"/>
<path d="M2380 1960 l0 -70 -70 0 -70 0 0 -70 0 -70 70 0 70 0 0 -70 0 -70 80
0 80 0 0 70 0 70 70 0 70 0 0 70 0 70 -70 0 -70 0 0 70 0 70 -80 0 -80 0 0
-70z"/>
<path d="M2651 1269 c-716 -707 -1131 -1130 -1131 -1154 0 -11 5 -26 12 -33 9
-9 185 -12 730 -12 704 0 720 0 759 20 22 12 49 35 59 53 19 31 20 55 20 758
0 550 -3 728 -12 737 -7 7 -21 12 -32 12 -12 0 -162 -142 -405 -381z"/>
</g>
</svg>
